HIERARCHY
ROOT pelvis
{
  OFFSET 0 100 0
  CHANNELS 6 Xposition Yposition Zposition Zrotation Xrotation Yrotation
  JOINT pelvis_right_femur
  {
    OFFSET -10.78128 -3.44521 -0.5502486
    CHANNELS 3 Zrotation Xrotation Yrotation
    JOINT right_femur_tibia
    {
      OFFSET -0.8047443 -44.0398 -0.1307829
      CHANNELS 3 Zrotation Xrotation Yrotation
      JOINT right_tibia_foot
      {
        OFFSET 3.006224 -47.83518 -5
        CHANNELS 3 Zrotation Xrotation Yrotation
        End Site
        {
          OFFSET 0 -5 15
        }
      }
    }
  }
  JOINT pelvis_left_femur
  {
    OFFSET 10.78128 -3.44521 -0.5502486
    CHANNELS 3 Zrotation Xrotation Yrotation
    JOINT left_femur_tibia
    {
      OFFSET 0.8047443 -44.0398 -0.1307829
      CHANNELS 3 Zrotation Xrotation Yrotation
      JOINT left_tibia_foot
      {
        OFFSET -4.370144 -48.10324 -4.275266
        CHANNELS 3 Zrotation Xrotation Yrotation
        End Site
        {
          OFFSET 0 -5 15
        }
      }
    }
  }
  JOINT pelvis_spine1
  {
    OFFSET 0 6.468898 -3.129235
    CHANNELS 3 Zrotation Xrotation Yrotation
    JOINT spine1
    {
      OFFSET 0 23.15396 4.99043
      CHANNELS 3 Zrotation Xrotation Yrotation
      JOINT spine2
      {
        OFFSET 0 20.79997 -5.064912
        CHANNELS 3 Zrotation Xrotation Yrotation
        JOINT neck
        {
          OFFSET 0 14.38658 9.616178
          CHANNELS 3 Zrotation Xrotation Yrotation
          End Site
          {
            OFFSET 0 20 0
          }
        }
      }
      JOINT right_manubrium
      {
        OFFSET -5.722621 16.35077 3.967754
        CHANNELS 3 Zrotation Xrotation Yrotation
        JOINT right_clavicle
        {
          OFFSET -13.16364 1.694482 -4.693211
          CHANNELS 3 Zrotation Xrotation Yrotation
          JOINT right_humerus
          {
            OFFSET -28.5034 -0.3100689 -2.792744
            CHANNELS 3 Zrotation Xrotation Yrotation
            JOINT right_radius
            {
              OFFSET -25.15693 0.02248979 -1.271978
              CHANNELS 3 Zrotation Xrotation Yrotation
              End Site
              {
                OFFSET -15 0 0
              }
            }
          }
        }
      }
      JOINT left_manubrium
      {
        OFFSET 5.722621 16.35077 3.967754
        CHANNELS 3 Zrotation Xrotation Yrotation
        JOINT left_clavicle
        {
          OFFSET 13.16364 1.694482 -4.693211
          CHANNELS 3 Zrotation Xrotation Yrotation
          JOINT left_humerus
          {
            OFFSET 29.39168 -1.063119 -2.237045
            CHANNELS 3 Zrotation Xrotation Yrotation
            JOINT left_radius
            {
              OFFSET 24.59957 -0.9528479 0.9047498
              CHANNELS 3 Zrotation Xrotation Yrotation
              End Site
              {
                OFFSET 15 -0 -0
              }
            }
          }
        }
      }
    }
  }
}
MOTION
Frames: 21
Frame Time: 0.0416666666667
0 103.5113 0 0.03199004 -2.130458 -0.132236 0.5985305 -3.828191 9.810206 -0 27.32488 -0 -7.308587 -13.76822 -2.573274 -4.22387 6.962053 -19.13562 -0 9.844524 -0 16.20148 -15.75048 25.33736 -3.46224 -3.02747 3.182261 3.718983 9.589958 -8.148595 2.998126 20.11732 4.580379 0.6883062 -26.02243 8.602468 7.955445 -19.46226 11.8762 82.04802 32.71273 -17.78101 -0 0 19.45346 -9.603827 7.675969 1.989791 8.240654 -25.41795 -1.189115 -101.8238 31.25269 27.29905 0 0 -15.53655 2.031704 33.00754 7.804507
0.559767 103.4954 1.013922 0.02747551 -2.160723 -0.2424993 1.046712 -7.664033 10.19602 -0 34.70002 -0 -7.0714 -12.30213 -3.090925 -4.464769 7.962326 -18.83112 -0 9.251134 -0 15.86289 -16.40913 25.12308 -3.417663 -2.243104 2.860762 3.469027 9.56633 -8.283181 3.006684 19.73434 5.009578 1.344728 -26.61495 8.648243 7.78559 -19.5334 11.63571 81.67294 32.56973 -17.42519 -0 0 19.54751 -9.913972 7.618257 2.301847 7.991456 -24.90024 -1.296752 -101.4788 31.16411 27.35411 0 0 -15.25286 2.008315 32.41089 8.000909
1.046501 103.3756 2.141578 0.0203468 -2.215043 -0.43567 1.650093 -12.01752 10.29225 -0 42.15356 -0 -6.883277 -10.57448 -3.749481 -4.648579 9.12327 -18.49726 -0 8.527308 -0 15.41761 -17.08531 24.95363 -3.416011 -1.426907 2.57309 3.243573 9.434766 -8.351475 2.985708 19.18174 5.720606 2.099078 -27.27547 9.004372 7.649406 -19.42057 11.38961 81.45009 32.44739 -17.28771 -0 0 19.4459 -10.17488 7.573484 2.575934 7.706362 -24.48738 -1.572358 -100.9114 31.09487 27.25206 0 0 -14.98265 2.025952 31.77032 8.183971
1.463367 103.3028 3.499991 0.009651586 -2.299577 -0.7348129 2.26014 -16.57795 9.994686 -0 48.58192 -0 -6.934781 -9.184628 -4.550963 -4.851101 10.50667 -18.08078 -0 7.753157 -0 14.8344 -17.74512 24.80715 -3.468746 -0.4311882 2.294672 3.006297 9.444286 -8.425273 2.942382 18.71131 6.310576 2.859682 -27.81676 9.122173 7.579143 -19.30854 11.25185 81.30158 32.38926 -17.20912 -0 0 19.19634 -10.37561 7.551443 2.826114 7.444883 -24.17874 -1.806914 -100.2256 31.0274 26.97648 0 0 -14.78712 2.103173 31.11312 8.345258
1.954038 103.3533 5.363336 -0.01102949 -2.489887 -1.402506 2.758693 -21.19829 9.252993 -0 52.53273 -0 -7.204448 -8.358947 -5.171712 -5.220942 12.11133 -17.55818 -0 7.060186 -0 14.13037 -18.41293 24.61676 -3.542127 0.4494905 2.195233 2.781186 9.482903 -8.446636 2.819809 18.24488 6.789403 3.567223 -28.23191 8.974974 7.50347 -19.08866 11.17133 81.32312 32.40422 -17.36131 -0 0 18.72466 -10.44324 7.564312 2.987693 7.280085 -23.85998 -1.975604 -99.56547 30.92914 26.61791 0 0 -14.62183 2.206106 30.42821 8.516905
2.24819 103.2713 7.162469 -0.02861084 -2.611619 -1.840565 3.337889 -24.8058 7.984738 -0 52.54797 -0 -7.554091 -7.686044 -5.261409 -5.21216 13.80828 -17.00663 -0 6.12625 -0 13.35931 -19.21834 24.1509 -3.532537 1.813307 2.228216 2.686909 9.478236 -8.435379 2.911886 17.89038 7.21829 4.264009 -28.93983 9.170231 7.25637 -18.84042 11.1625 81.56384 32.47836 -17.57419 -0 0 18.19597 -10.42478 7.602441 3.14814 7.02795 -23.72081 -2.30979 -98.98746 30.75998 25.92536 0 0 -14.78397 2.289593 29.65557 8.593576
2.448825 103.0324 9.256422 -0.03858598 -2.645313 -1.97523 3.799543 -27.71548 6.834952 -0 48.1966 -0 -7.66868 -7.060833 -4.83462 -5.531126 15.49534 -16.23247 -0 5.887904 -0 12.58178 -19.96731 23.70723 -3.588494 2.810539 2.413635 2.643449 9.365284 -8.326962 2.749256 17.59295 7.521704 4.739541 -29.3193 8.948559 6.983909 -18.3708 11.18107 82.07277 32.59512 -18.05958 -0 0 17.43495 -10.31377 7.677077 3.267171 7.064502 -23.67944 -2.601748 -98.2902 30.5863 25.01722 0 0 -15.24216 2.432408 28.87824 8.588301
2.649284 102.5688 11.87956 -0.04266748 -2.622316 -1.914778 3.867249 -29.60007 5.783075 -0 41.30118 -0 -7.73519 -6.443881 -4.310533 -5.727265 17.06829 -15.60485 -0 6.077456 -0 11.81383 -20.87025 23.05966 -3.530922 3.821869 2.62121 2.68672 9.082428 -8.152474 2.725161 17.37242 7.741209 5.18376 -29.8795 8.894438 6.55435 -17.67131 11.15007 82.77771 32.7435 -18.80016 -0 0 16.44709 -10.15934 7.784843 3.371703 7.025515 -23.56082 -2.867298 -97.69962 30.32227 24.11081 0 0 -15.94219 2.648435 28.0995 8.485395
2.766521 101.7579 14.8073 -0.03743688 -2.511057 -1.543244 3.812253 -30.91288 4.914834 -0 33.40906 -0 -7.852392 -5.900207 -3.854956 -5.895364 18.42636 -15.04093 -0 6.898476 -0 11.00244 -21.8367 22.20878 -3.366146 4.727667 2.859005 2.757622 8.851208 -7.911769 2.704843 17.31421 7.935295 5.53897 -30.60215 8.974363 6.064557 -16.84092 11.2428 83.62531 32.94002 -19.64708 -0 0 15.26679 -9.956884 7.932692 3.450605 6.946055 -23.53483 -3.272717 -97.04356 30.02517 23.08122 0 0 -16.82115 2.909861 27.31769 8.302948
2.818776 100.8653 18.34436 -0.03054257 -2.380198 -1.097943 3.741771 -31.62155 4.257272 -0 26.66304 -0 -8.176502 -5.405472 -3.447999 -6.049447 19.53322 -14.48804 -0 8.622745 -0 9.955936 -22.57356 21.08704 -3.177711 5.407086 2.928852 2.854518 8.587824 -7.82763 2.495256 17.31173 8.226422 5.838591 -31.35211 8.996848 5.852413 -16.29143 11.46945 84.51708 33.24661 -20.34411 -0 0 13.67314 -9.695674 8.130205 3.442799 6.688634 -23.24825 -3.882453 -96.46587 29.64691 22.31523 0 0 -17.56385 3.147545 26.50777 8.129549
2.795105 100.1495 22.28732 -0.01533576 -2.134051 -0.2448152 3.875093 -31.58955 4.038088 -0 22.79006 -0 -8.767928 -5.086364 -3.046138 -5.848175 20.60923 -13.76227 -0 11.01387 -0 8.512822 -22.70648 19.51285 -2.881697 5.735414 2.655532 2.948018 8.32455 -8.062192 2.265826 17.33019 8.416272 5.986353 -31.84981 8.93748 5.801916 -15.79005 11.48202 85.39245 33.50087 -21.09981 -0 0 12.12678 -9.526388 8.370131 3.536701 6.264617 -23.01463 -4.318433 -95.84351 29.2339 21.80712 0 0 -18.01326 3.339032 25.66642 8.010779
2.663859 99.67266 26.85343 0.002326157 -1.789854 0.9538845 4.051099 -30.15998 4.078587 -0 22.34355 -0 -9.595602 -4.820913 -2.940973 -5.507168 21.09339 -12.99176 -0 14.81254 -0 6.626454 -21.64713 17.63607 -2.480567 5.703289 2.312562 2.98406 8.069475 -8.391628 2.002821 17.34617 8.524346 5.992374 -32.10084 8.78375 5.827287 -15.28892 11.38484 86.301 33.72502 -21.84802 -0 0 10.64669 -9.434166 8.660744 3.743354 5.774022 -22.67876 -4.512446 -95.31387 28.73325 21.64848 0 0 -18.16694 3.490204 24.77624 7.967244
2.489817 99.68854 32.1562 0.01077548 -1.540195 1.826283 4.274092 -28.3235 4.267398 -0 23.45415 -0 -10.48579 -5.014292 -3.221291 -5.278239 20.67979 -12.10802 -0 20.6108 -0 4.398417 -18.89615 15.62964 -1.906184 5.000172 2.125983 2.941298 7.800257 -8.649317 1.631928 17.38623 8.659494 5.867552 -32.11323 8.603943 5.85575 -14.7927 11.21661 87.24185 33.90241 -22.60768 -0 0 9.344451 -9.467798 9.01145 4.072211 5.215327 -22.07846 -4.397649 -94.95185 28.14083 21.9528 0 0 -18.03396 3.610727 23.85696 7.988849
2.325632 100.1487 37.58512 0.01160411 -1.454481 2.12908 4.503408 -25.73951 4.488818 -0 24.42406 -0 -11.29576 -5.995209 -3.507965 -5.217255 18.93893 -11.35399 -0 28.59763 -0 2.193313 -14.39089 13.67052 -1.310944 4.243161 2.213864 2.747584 7.786888 -8.670517 1.159317 17.6504 8.772146 5.598784 -31.79093 8.35098 5.763833 -14.50705 11.06888 87.84954 34.08438 -22.95153 -0 0 8.551083 -9.745823 9.392197 4.645896 4.787494 -21.50543 -4.043107 -94.57466 27.49528 22.33803 0 0 -17.87009 3.752795 22.92255 8.024781
2.189806 100.8484 43.40617 0.001906191 -1.64393 1.477008 4.889297 -21.96735 4.607443 -0 24.42323 -0 -11.93245 -7.640999 -3.578502 -5.392234 15.23812 -10.39636 -0 38.79641 -0 0.7826779 -9.18152 12.34596 -0.860065 3.097543 2.821622 2.495421 8.004253 -8.377024 0.6362989 18.16781 8.831901 5.240863 -31.26657 8.028266 5.77752 -14.46351 10.94015 87.98118 34.29572 -22.87211 -0 0 8.141821 -10.29166 9.786023 5.383596 4.329941 -20.96227 -3.428957 -94.21668 26.86385 22.85487 0 0 -17.61097 3.803495 21.98336 8.08565
1.975433 101.7175 48.94352 -0.00488552 -1.757524 1.091937 4.987293 -17.60571 4.36617 -0 23.14053 -0 -12.22498 -9.42019 -3.421305 -5.383169 9.786006 -8.810804 -0 48.02137 -0 0.3342822 -5.436143 12.70151 -0.6686372 2.191934 3.822064 2.343321 8.228431 -7.891514 0.1582803 18.62438 8.735747 4.826091 -30.82664 7.566707 5.926809 -14.67614 11.05255 87.5024 34.54992 -22.13447 -0 0 8.265264 -11.10286 10.16427 6.24025 4.050178 -20.85325 -2.895117 -93.53869 26.37013 22.97653 0 0 -17.52046 3.806899 21.05574 8.124688
1.764492 102.7796 54.17756 -0.01121502 -1.876079 0.6934562 4.877645 -12.77816 3.855273 -0 20.6535 -0 -12.08004 -10.92514 -2.897965 -4.463378 2.131041 -6.827863 -0 55.17202 -0 1.064637 -4.404686 14.43167 -0.5962067 1.363654 4.980987 2.271983 8.614142 -7.3757 -0.3243989 19.41593 8.481316 4.349709 -30.2192 6.912373 6.180572 -15.11056 11.24737 86.55721 34.78425 -20.84876 -0 0 8.779655 -12.19191 10.49333 7.177049 3.861764 -20.90631 -2.39086 -92.73831 25.92406 22.93143 0 0 -17.55931 3.817082 20.14226 8.139639
1.611549 103.8502 58.95929 -0.01736117 -1.99562 0.2908752 4.634164 -7.837259 3.181997 -0 17.39006 -0 -11.54861 -12.08894 -2.07505 -2.985173 -5.284421 -5.584921 -0 58.61929 -0 2.162657 -4.775546 15.73138 -0.5776326 0.9309178 6.197819 2.074827 8.904527 -6.683379 -0.7269722 20.11529 8.158809 3.879706 -29.571 6.248415 6.254862 -15.94612 11.77275 85.05177 35.06926 -18.75906 -0 0 9.623273 -13.48033 10.76469 8.146852 3.912438 -21.01612 -2.083507 -91.84177 25.5239 22.67638 0 0 -17.83983 3.852825 19.2548 8.110402
1.549545 104.8076 63.99412 -0.03276369 -2.22781 -0.5022325 4.34779 -2.703764 2.510043 -0 14.07721 -0 -10.78539 -13.08742 -1.139639 -1.512657 -12.65876 -4.465589 -0 59.13997 -0 2.981626 -4.388418 16.61801 -0.4911864 0.4379658 7.446407 1.668743 9.245946 -5.655862 -1.041108 20.79717 7.8815 3.460544 -28.88035 5.757746 6.116999 -16.82643 12.26478 83.31725 35.24004 -16.31636 -0 0 10.79776 -14.93377 10.94417 9.162783 3.940462 -20.99305 -1.570029 -91.26525 25.09094 22.55124 0 0 -18.23062 3.748887 18.34591 8.067997
1.455302 105.0693 68.6363 -0.03472055 -2.261909 -0.6117521 4.117996 1.832902 1.859462 -0 11.144 -0 -9.969696 -14.1998 -0.3042414 -0.02388208 -19.03939 -2.175533 -0 53.11371 -0 3.063178 -4.40973 18.40722 -0.4923497 0.1562647 7.967472 1.288939 9.470844 -5.13318 -1.373122 21.39043 7.700302 3.027797 -28.06616 5.403766 5.790687 -18.01804 12.49648 81.4453 35.27848 -13.44817 -0 0 12.37511 -16.46895 11.03244 10.22693 4.185508 -20.9147 -1.257833 -90.71841 24.73629 22.35624 0 0 -18.67755 3.648645 17.51552 8.02586
1.490446 104.8577 73.30238 -0.04316689 -2.360478 -0.9495259 3.887868 6.021752 1.272609 -0 8.976868 -0 -9.178423 -15.501 0.3958849 1.974364 -23.48318 -0.2521089 -0 44.18428 -0 2.701059 -3.932256 19.85002 -0.5104988 0.1303443 8.311636 0.7902081 9.577191 -4.60959 -1.615042 21.7262 7.66461 2.711561 -27.24256 5.289775 5.306504 -19.37719 12.76676 79.37999 35.16629 -10.29275 -0 0 14.27319 -18.17431 11.0602 11.34076 4.372524 -20.81611 -1.140124 -90.28319 24.46125 22.16538 0 0 -18.89156 3.440597 16.73049 8.145805
